<svg width="1920" height="337" viewBox="0 0 1920 337" fill="none" xmlns="http://www.w3.org/2000/svg">
<mask id="mask0_33_74" style="mask-type:alpha" maskUnits="userSpaceOnUse" x="0" y="0" width="1920" height="337">
<rect width="1920" height="337" fill="#5956E9"/>
</mask>
<g mask="url(#mask0_33_74)">
<path d="M0.0105354 163C-4.98946 184.052 3.92051 206.815 16.8905 222.183C29.8605 237.55 46.4405 247.474 61.6905 259.446C76.9405 271.417 91.6905 286.628 97.4505 307.404C107.711 344.378 86.7505 381.99 76.7605 419.073C61.6505 475.16 73.4305 540.546 106.491 584.072" stroke="#F8FAFC" stroke-opacity="0.3" stroke-miterlimit="10"/>
<path d="M-11.8595 167.348C-16.8595 188.4 -7.93952 211.163 5.02048 226.531C17.9805 241.898 34.5805 251.822 49.8305 263.794C65.0805 275.765 79.8305 290.976 85.5805 311.752C95.8405 348.714 74.8905 386.362 64.9005 423.409C49.7805 479.508 61.5605 544.893 94.6205 588.407" stroke="#F8FAFC" stroke-opacity="0.3" stroke-miterlimit="10"/>
<path d="M-23.7196 171.695C-28.7196 192.748 -19.7996 215.51 -6.83961 230.878C6.12039 246.246 22.7104 256.17 37.9604 268.141C53.2104 280.113 67.9604 295.324 73.7204 316.099C83.9804 353.061 63.0304 390.686 53.0404 427.756C37.9204 483.856 49.7004 549.241 82.7604 592.755" stroke="#F8FAFC" stroke-opacity="0.3" stroke-miterlimit="10"/>
<path d="M-35.5896 176.043C-40.5896 197.096 -31.6696 219.858 -18.6996 235.226C-5.72956 250.594 10.8504 260.518 26.1004 272.489C41.3504 284.461 56.1004 299.672 61.8504 320.447C72.1204 357.457 51.1604 395.034 41.1704 432.128C26.0604 488.228 37.8404 553.613 70.9004 597.127" stroke="#F8FAFC" stroke-opacity="0.3" stroke-miterlimit="10"/>
<path d="M-86 9.72427C-48.6253 9.65931 -11.5833 30.3954 12.4761 64.8183C33.3167 94.6825 44.1057 132.82 61.9973 165.358C79.889 197.897 110.143 226.43 142.015 219.283C163.89 214.378 181.278 193.36 191.563 169.603C201.849 145.846 206.308 119.165 211.82 93.1991C217.331 67.233 224.317 40.8771 238.576 20.3035C256.648 -5.78174 285.985 -19.8584 314 -15.8953" stroke="#F8FAFC" stroke-opacity="0.3" stroke-miterlimit="10"/>
<path d="M-73.4847 8.07826C-55.9189 8.19195 -38.5798 12.8646 -22.6488 21.7778C-6.71786 30.691 7.43066 43.6353 18.8327 59.7289C38.3967 87.7198 48.5023 123.475 65.2521 153.934C82.002 184.394 110.377 211.183 140.244 204.491C160.752 199.889 177.053 180.193 186.691 157.93C196.329 135.667 200.545 110.697 205.679 86.3338C210.813 61.9703 217.367 37.282 230.763 17.9969C247.702 -6.45322 275.205 -19.6528 301.458 -15.9387" stroke="#F8FAFC" stroke-opacity="0.3" stroke-miterlimit="10"/>
<path d="M-60.9696 6.43229C-44.5694 6.53239 -28.3799 10.8906 -13.5052 19.2099C1.36963 27.5291 14.58 39.6136 25.2251 54.6395C43.4764 80.7572 52.8807 114.13 68.5427 142.586C84.2046 171.043 110.638 196.013 138.509 189.743C157.65 185.412 172.863 167.069 181.863 146.279C190.862 125.489 194.755 102.154 199.574 79.447C204.393 56.7402 210.516 33.6653 222.95 15.6688C230.974 4.31172 241.181 -4.51032 252.683 -10.0288C264.185 -15.5473 276.633 -17.5948 288.943 -15.993" stroke="#F8FAFC" stroke-opacity="0.3" stroke-miterlimit="10"/>
<path d="M-48.4455 4.78643C-33.2209 4.88235 -18.1924 8.92965 -4.38388 16.6526C9.42462 24.3755 21.6886 35.5926 31.5725 49.5395C48.5291 73.7947 57.2592 104.763 71.7973 131.206C86.3354 157.648 110.898 180.799 136.774 174.995C154.539 171.011 168.664 153.945 177.025 134.649C185.387 115.353 188.992 93.6862 193.47 72.5928C197.947 51.4994 203.629 30.092 215.2 13.384C222.648 2.85257 232.119 -5.32864 242.789 -10.4484C253.46 -15.5682 265.007 -17.4715 276.428 -15.9929" stroke="#F8FAFC" stroke-opacity="0.3" stroke-miterlimit="10"/>
<path d="M-35.9122 3.14056C-21.865 3.23317 -7.99952 6.97112 4.73989 14.0998C17.4793 21.2284 28.7933 31.5803 37.9112 44.4503C53.5551 66.8322 61.6109 95.4295 75.0341 119.815C88.4574 144.2 111.123 165.596 135.003 160.236C151.402 156.566 164.438 140.811 172.153 122.998C179.867 105.186 183.202 85.186 187.329 65.7277C191.456 46.2694 196.706 26.497 207.387 11.0776C214.263 1.34793 223.009 -6.21055 232.863 -10.9399C242.718 -15.6693 253.383 -17.4263 263.931 -16.0579" stroke="#F8FAFC" stroke-opacity="0.3" stroke-miterlimit="10"/>
<path d="M1588.81 407.516C1583.56 384.422 1579.73 359.258 1587.07 337.01C1596.7 307.852 1623.4 291.53 1649.26 287.785C1675.12 284.04 1701.17 290.232 1727.13 292.606C1753.1 294.98 1780.93 292.928 1802.34 275.051C1832.06 250.264 1841.77 201.931 1868.57 172.774C1890.91 148.428 1924.63 140.405 1952.98 152.688" stroke="#F8FAFC" stroke-opacity="0.3" stroke-miterlimit="10"/>
<path d="M1608.48 407.516C1603.52 385.674 1599.89 361.862 1606.84 340.819C1615.94 313.216 1641.22 297.796 1665.67 294.253C1690.11 290.711 1714.77 296.563 1739.34 298.854C1763.9 301.145 1790.22 299.157 1810.48 282.292C1838.57 258.848 1847.78 213.147 1873.12 185.535C1894.25 162.533 1926.15 154.915 1952.97 166.535" stroke="#F8FAFC" stroke-opacity="0.3" stroke-miterlimit="10"/>
<path d="M1628.16 407.517C1623.47 386.916 1620.05 364.475 1626.63 344.628C1635.22 318.617 1659.03 304.061 1682.1 300.721C1705.17 297.382 1728.4 302.902 1751.56 305.028C1774.72 307.153 1799.54 305.313 1818.63 289.386C1845.12 267.304 1853.81 224.188 1877.71 198.15C1897.64 176.445 1927.71 169.286 1953 180.236" stroke="#F8FAFC" stroke-opacity="0.3" stroke-miterlimit="10"/>
<path d="M1647.83 407.517C1643.43 388.195 1640.19 367.032 1646.37 348.437C1654.44 324.009 1676.81 310.327 1698.48 307.19C1720.14 304.052 1741.97 309.242 1763.74 311.229C1785.5 313.216 1808.81 311.496 1826.76 296.507C1851.63 275.732 1859.8 235.257 1882.25 210.801C1900.97 190.403 1929.23 183.677 1952.98 193.963" stroke="#F8FAFC" stroke-opacity="0.3" stroke-miterlimit="10"/>
<path d="M1667.51 407.516C1663.38 389.418 1660.38 369.682 1666.14 352.247C1673.68 329.392 1694.61 316.593 1714.89 313.658C1735.16 310.723 1755.58 315.572 1775.94 317.44C1796.3 319.307 1818.11 317.688 1834.89 303.638C1858.16 284.206 1865.8 246.344 1886.8 223.461C1904.32 204.379 1930.75 198.085 1952.98 207.709" stroke="#F8FAFC" stroke-opacity="0.3" stroke-miterlimit="10"/>
</g>
</svg>
