<svg width="22" height="14" viewBox="0 0 22 14" fill="none" xmlns="http://www.w3.org/2000/svg">
<path d="M11 13.75C7.80123 13.75 4.77423 12.3948 2.47473 9.934C2.19198 9.63175 2.20848 9.157 2.51073 8.87425C2.81373 8.5915 3.28773 8.608 3.57123 8.91025C5.58348 11.0643 8.22123 12.25 11 12.25C14.5722 12.25 17.8617 10.2962 19.88 7C17.8625 3.70375 14.5722 1.75 11 1.75C7.29648 1.75 3.89598 3.85075 1.90248 7.36975C1.69848 7.7305 1.23948 7.858 0.880229 7.6525C0.519479 7.4485 0.393479 6.991 0.597479 6.63025C2.86023 2.635 6.74973 0.25 11 0.25C15.251 0.25 19.1397 2.635 21.4025 6.63025C21.5322 6.85975 21.5322 7.14025 21.4025 7.369C19.1397 11.3643 15.251 13.75 11 13.75Z" fill="#5956E9"/>
<path d="M11 10.75C8.93225 10.75 7.25 9.06775 7.25 7C7.25 4.93225 8.93225 3.25 11 3.25C13.0677 3.25 14.75 4.93225 14.75 7C14.75 9.06775 13.0677 10.75 11 10.75ZM11 4.75C9.7595 4.75 8.75 5.7595 8.75 7C8.75 8.2405 9.7595 9.25 11 9.25C12.2405 9.25 13.25 8.2405 13.25 7C13.25 5.7595 12.2405 4.75 11 4.75Z" fill="#5956E9"/>
</svg>
