<svg width="134" height="25" viewBox="0 0 134 25" fill="none" xmlns="http://www.w3.org/2000/svg">
<path d="M3.43206 7.686C2.71706 7.686 2.18406 7.205 2.18406 6.438C2.18406 5.645 2.75606 5.177 3.58806 5.177H4.65406V6.139C4.65406 7.101 4.21206 7.686 3.43206 7.686ZM3.44506 8.843C5.04406 8.843 5.92806 7.829 5.92806 6.074V5.177H7.90406V10H9.26906V1.524H10.8681V0.38H7.90406V4.059H5.92806V3.136C5.92806 1.472 5.29106 0.263 3.54906 0.263C2.02806 0.263 1.18306 1.225 1.18306 2.59C1.18306 2.759 1.20906 2.954 1.23506 3.11H2.60006C2.56106 2.941 2.54806 2.785 2.54806 2.642C2.54806 1.888 2.97706 1.433 3.60106 1.433C4.34206 1.433 4.65406 2.018 4.65406 2.902V4.059H3.54906C2.06706 4.059 0.910061 4.878 0.910061 6.438C0.910061 7.881 1.92406 8.843 3.44506 8.843ZM11.8239 10H13.1889V1.524H14.7749V0.38H10.2379V1.524H11.8239V10ZM14.148 1.524H18.932V2.603C18.932 3.929 18.269 4.631 16.813 4.631H15.461V7.309C15.461 8.921 16.345 10.117 18.113 10.117C19.725 10.117 20.674 9.064 20.674 7.452V7.205H19.361V7.491C19.361 8.362 18.88 8.947 18.087 8.947C17.203 8.947 16.8 8.284 16.8 7.374V5.749H17.294C19.413 5.749 20.284 4.527 20.284 2.603V1.524H21.714V0.38H14.148V1.524ZM21.0924 1.524H27.8394V3.552H25.9544C23.8484 3.552 22.2494 4.527 22.2494 6.776C22.2494 8.947 23.6664 9.974 25.6294 9.974H26.0974V8.895H25.8244C24.3814 8.895 23.6274 8.102 23.6274 6.802C23.6274 5.411 24.5764 4.722 26.0194 4.722H27.8394V10H29.2044V1.524H30.7904V0.38H21.0924V1.524ZM39.4615 2.616V1.524H41.9055V4.527H38.8375C39.2275 4.059 39.4615 3.422 39.4615 2.616ZM33.5465 1.524H38.1095V2.616C38.1095 3.838 37.4595 4.657 35.9905 4.657H34.8595V7.296C34.8595 8.908 35.7565 10.117 37.5375 10.117C39.1625 10.117 40.1375 9.116 40.1375 7.556C40.1375 7.517 40.1375 7.426 40.1245 7.335H38.8115V7.491C38.8115 8.349 38.3435 8.947 37.5115 8.947C36.6145 8.947 36.1985 8.271 36.1985 7.361V5.645H41.9055V10H43.2575V1.524H44.8565V0.38H33.5465V1.524ZM44.2359 1.524H49.0199V2.603C49.0199 3.929 48.3569 4.631 46.9009 4.631H45.5489V7.309C45.5489 8.921 46.4329 10.117 48.2009 10.117C49.8129 10.117 50.7619 9.064 50.7619 7.452V7.205H49.4489V7.491C49.4489 8.362 48.9679 8.947 48.1749 8.947C47.2909 8.947 46.8879 8.284 46.8879 7.374V5.749H47.3819C49.5009 5.749 50.3719 4.527 50.3719 2.603V1.524H51.8019V0.38H44.2359V1.524ZM57.3292 10H58.6422V5.944C58.6422 4.995 59.1492 4.007 60.3712 4.007C61.3462 4.007 62.0872 4.735 62.0872 5.827C62.0872 6.997 61.3592 7.66 60.4102 7.66C60.2542 7.66 60.0722 7.647 59.9292 7.608V8.687C60.1892 8.752 60.4622 8.778 60.7612 8.778C62.3082 8.778 63.4652 7.686 63.4652 5.801C63.4652 4.085 62.3862 2.837 60.7742 2.837C59.7082 2.837 59.0062 3.344 58.6422 4.059V1.524H64.6092V0.38H51.1802V1.524H57.3292V4.033C56.9522 3.344 56.2242 2.837 55.1322 2.837C53.4682 2.837 52.3372 4.02 52.3372 5.827C52.3372 7.66 53.4422 8.856 55.0802 8.856C56.1982 8.856 56.9522 8.336 57.3292 7.621V10ZM55.5222 7.712C54.4822 7.712 53.7152 7.01 53.7152 5.84C53.7152 4.709 54.5212 4.007 55.5222 4.007C56.7702 4.007 57.3292 4.956 57.3292 5.853C57.3292 6.711 56.7572 7.712 55.5222 7.712ZM65.5885 10H66.9535V1.524H68.5395V0.38H64.0025V1.524H65.5885V10ZM67.9127 1.524H72.6967V2.603C72.6967 3.929 72.0337 4.631 70.5777 4.631H69.2257V7.309C69.2257 8.921 70.1097 10.117 71.8777 10.117C73.4897 10.117 74.4387 9.064 74.4387 7.452V7.205H73.1257V7.491C73.1257 8.362 72.6447 8.947 71.8517 8.947C70.9677 8.947 70.5647 8.284 70.5647 7.374V5.749H71.0587C73.1777 5.749 74.0487 4.527 74.0487 2.603V1.524H75.4787V0.38H67.9127V1.524ZM5.09606 14.848C2.54806 14.848 0.481061 16.759 0.481061 19.463C0.481061 22.18 2.54806 24.078 5.09606 24.078C7.52706 24.078 9.29506 22.297 9.56806 20.204V19.047H4.58906V20.23H7.98206C7.76106 21.751 6.73406 22.739 5.09606 22.739C3.30206 22.739 2.00206 21.452 2.00206 19.463C2.00206 17.474 3.30206 16.2 5.09606 16.2C6.17506 16.2 7.03306 16.655 7.51406 17.565H9.29506C8.60606 15.797 6.98106 14.848 5.09606 14.848ZM17.8547 20.412C17.8547 18.163 16.2427 16.72 14.2017 16.72C12.1607 16.72 10.5487 18.163 10.5487 20.412C10.5487 22.661 12.0957 24.117 14.1367 24.117C16.1907 24.117 17.8547 22.661 17.8547 20.412ZM12.0567 20.412C12.0567 18.787 13.0577 18.007 14.1757 18.007C15.2807 18.007 16.3337 18.787 16.3337 20.412C16.3337 22.037 15.2417 22.83 14.1367 22.83C13.0187 22.83 12.0567 22.037 12.0567 20.412ZM18.4748 16.837L21.1918 24H22.9598L25.6898 16.837H24.1168L22.0888 22.674L20.0608 16.837H18.4748ZM29.826 17.968C30.931 17.968 31.802 18.67 31.828 19.775H27.863C28.019 18.644 28.825 17.968 29.826 17.968ZM33.18 21.868H31.581C31.308 22.427 30.801 22.869 29.891 22.869C28.799 22.869 27.954 22.154 27.85 20.971H33.323C33.362 20.724 33.375 20.49 33.375 20.243C33.375 18.137 31.932 16.72 29.891 16.72C27.772 16.72 26.316 18.163 26.316 20.412C26.316 22.661 27.837 24.117 29.891 24.117C31.646 24.117 32.777 23.116 33.18 21.868ZM36.3155 20.23C36.3155 18.709 36.9915 18.254 38.0835 18.254H38.4605V16.72C37.4465 16.72 36.7315 17.162 36.3155 17.877V16.837H34.8335V24H36.3155V20.23ZM44.9057 24H46.3747V19.775C46.3747 17.773 45.1137 16.72 43.4367 16.72C42.5787 16.72 41.7857 17.071 41.3047 17.656V16.837H39.8227V24H41.3047V19.996C41.3047 18.683 42.0197 18.007 43.1117 18.007C44.1907 18.007 44.9057 18.683 44.9057 19.996V24ZM58.4181 24H59.8871V19.775C59.8871 17.773 58.6131 16.72 56.9361 16.72C55.8961 16.72 54.8821 17.266 54.4401 18.137C53.9461 17.201 52.9971 16.72 51.8661 16.72C51.0081 16.72 50.2281 17.071 49.7471 17.656V16.837H48.2651V24H49.7471V19.996C49.7471 18.683 50.4621 18.007 51.5541 18.007C52.6331 18.007 53.3481 18.683 53.3481 19.996V24H54.8171V19.996C54.8171 18.683 55.5321 18.007 56.6241 18.007C57.7031 18.007 58.4181 18.683 58.4181 19.996V24ZM64.7889 17.968C65.8939 17.968 66.7649 18.67 66.7909 19.775H62.8259C62.9819 18.644 63.7879 17.968 64.7889 17.968ZM68.1429 21.868H66.5439C66.2709 22.427 65.7639 22.869 64.8539 22.869C63.7619 22.869 62.9169 22.154 62.8129 20.971H68.2859C68.3249 20.724 68.3379 20.49 68.3379 20.243C68.3379 18.137 66.8949 16.72 64.8539 16.72C62.7349 16.72 61.2789 18.163 61.2789 20.412C61.2789 22.661 62.7999 24.117 64.8539 24.117C66.6089 24.117 67.7399 23.116 68.1429 21.868ZM74.8794 24H76.3484V19.775C76.3484 17.773 75.0874 16.72 73.4104 16.72C72.5524 16.72 71.7594 17.071 71.2784 17.656V16.837H69.7964V24H71.2784V19.996C71.2784 18.683 71.9934 18.007 73.0854 18.007C74.1644 18.007 74.8794 18.683 74.8794 19.996V24ZM78.4727 22.011C78.4727 23.467 79.2657 24 80.5397 24H81.7097V22.765H80.7997C80.1757 22.765 79.9677 22.544 79.9677 22.011V18.046H81.7097V16.837H79.9677V15.056H78.4727V16.837H77.6277V18.046H78.4727V22.011ZM93.2776 20.412C93.2776 18.163 91.6656 16.72 89.6246 16.72C87.5836 16.72 85.9716 18.163 85.9716 20.412C85.9716 22.661 87.5186 24.117 89.5596 24.117C91.6136 24.117 93.2776 22.661 93.2776 20.412ZM87.4796 20.412C87.4796 18.787 88.4806 18.007 89.5986 18.007C90.7036 18.007 91.7566 18.787 91.7566 20.412C91.7566 22.037 90.6646 22.83 89.5596 22.83C88.4416 22.83 87.4796 22.037 87.4796 20.412ZM94.9246 24H96.4196V18.046H97.7456V16.837H96.4196V16.33C96.4196 15.511 96.7316 15.199 97.6416 15.199V13.964C95.7696 13.964 94.9246 14.679 94.9246 16.33V16.837H94.0796V18.046H94.9246V24ZM102.436 24H103.918V14.965H102.436V24ZM110.947 24H112.416V19.775C112.416 17.773 111.155 16.72 109.478 16.72C108.62 16.72 107.827 17.071 107.346 17.656V16.837H105.864V24H107.346V19.996C107.346 18.683 108.061 18.007 109.153 18.007C110.232 18.007 110.947 18.683 110.947 19.996V24ZM113.812 20.386C113.812 22.596 115.307 24.117 117.192 24.117C118.362 24.117 119.22 23.571 119.675 22.921V24H121.17V14.38H119.675V17.838C119.129 17.162 118.141 16.72 117.205 16.72C115.307 16.72 113.812 18.176 113.812 20.386ZM119.675 20.412C119.675 21.959 118.622 22.83 117.504 22.83C116.399 22.83 115.333 21.933 115.333 20.386C115.333 18.839 116.399 18.007 117.504 18.007C118.622 18.007 119.675 18.878 119.675 20.412ZM123.117 24H124.599V16.837H123.117V24ZM123.871 15.888C124.391 15.888 124.807 15.472 124.807 14.939C124.807 14.406 124.391 13.99 123.871 13.99C123.338 13.99 122.922 14.406 122.922 14.939C122.922 15.472 123.338 15.888 123.871 15.888ZM126.05 20.386C126.05 22.596 127.545 24.117 129.404 24.117C130.6 24.117 131.458 23.545 131.913 22.934V24H133.408V16.837H131.913V17.877C131.471 17.292 130.639 16.72 129.43 16.72C127.545 16.72 126.05 18.176 126.05 20.386ZM131.913 20.412C131.913 21.959 130.86 22.83 129.742 22.83C128.637 22.83 127.571 21.933 127.571 20.386C127.571 18.839 128.637 18.007 129.742 18.007C130.86 18.007 131.913 18.878 131.913 20.412Z" fill="#2B2B2B"/>
</svg>
