<svg width="137" height="32" viewBox="0 0 137 32" fill="none" xmlns="http://www.w3.org/2000/svg">
<path d="M3.639 5.524H5.225V4.38H3.626C3.691 2.599 5.173 1.975 8.202 1.975C11.322 1.975 12.96 2.755 12.96 4.575V4.757H14.299V4.549C14.299 2.183 12.362 0.857 8.228 0.857C4.198 0.857 2.339 2.001 2.274 4.38H0.688V5.524H2.274V14H3.639V5.524ZM8.86216 14.104C10.5002 14.104 11.5272 13.09 11.5272 11.4V11.205H10.2012V11.387C10.2012 12.297 9.69416 12.921 8.82316 12.921C7.78316 12.921 7.36716 12.193 7.36716 11.244V9.97H8.34216C10.2142 9.97 11.6702 9.021 11.6702 7.058C11.6702 5.264 10.5392 4.263 8.88816 4.263C7.18516 4.263 6.10616 5.342 6.10616 6.928C6.10616 7.123 6.13216 7.305 6.15816 7.5H7.51016C7.49716 7.318 7.48416 7.149 7.48416 6.967C7.48416 6.044 8.01716 5.446 8.88816 5.446C9.75916 5.446 10.2922 6.044 10.2922 6.967C10.2922 8.28 9.17416 8.813 7.86116 8.813H5.98916V11.153C5.98916 12.934 7.01616 14.104 8.86216 14.104ZM12.9962 14H14.3742V5.524H15.9602V4.38H12.9962V14ZM18.0944 6.72C18.0944 5.875 18.7574 5.433 19.4854 5.433C20.2784 5.433 20.8764 5.966 20.8764 6.733C20.8764 7.409 20.4604 7.851 19.8754 8.215C18.8354 8.189 18.0944 7.604 18.0944 6.72ZM20.6034 14.741H21.8514V11.01H20.7074C20.7074 11.777 20.2004 12.466 19.2904 12.466C18.4584 12.466 17.9384 11.881 17.9384 11.153C17.9384 10.113 18.8484 9.71 19.8494 9.229H23.6974V14H25.0104V5.524H26.5964V4.38H23.6974V8.228H21.1884C21.6694 7.799 22.0204 7.266 22.0204 6.473C22.0204 5.03 20.8764 4.25 19.5244 4.25C18.0294 4.25 16.8724 5.16 16.8724 6.629C16.8724 7.877 17.7174 8.592 18.7054 8.839C17.6134 9.385 16.5344 10.009 16.5344 11.426C16.5344 12.7 17.4574 13.597 18.8354 13.597C19.8234 13.597 20.3954 13.064 20.6034 12.687V14.741ZM27.5631 14H28.9281V5.524H30.5141V4.38H25.9771V5.524H27.5631V14ZM36.6832 11.686C35.9682 11.686 35.4352 11.205 35.4352 10.438C35.4352 9.645 36.0202 9.177 36.8392 9.177H37.9182V10.139C37.9182 11.101 37.4632 11.686 36.6832 11.686ZM41.3632 8.059H39.1922V5.524H41.3632V8.059ZM33.2642 5.524H37.9182V8.059H36.8002C35.3182 8.059 34.1742 8.878 34.1742 10.438C34.1742 11.881 35.1752 12.843 36.6962 12.843C38.3082 12.843 39.1922 11.829 39.1922 10.074V9.177H41.3632V14H42.7282V5.524H44.3142V4.38H33.2642V5.524ZM42.0487 3.223C42.5297 3.223 42.9067 2.846 42.9067 2.365C42.9067 1.884 42.5297 1.507 42.0487 1.507C41.5547 1.507 41.1777 1.884 41.1777 2.365C41.1777 2.846 41.5547 3.223 42.0487 3.223ZM43.6997 5.524H50.4857V8.319C50.0437 7.721 49.2377 7.149 48.0287 7.149C46.1307 7.149 44.8437 8.371 44.8697 10.334H46.2347C46.2347 8.969 47.1837 8.228 48.3667 8.228C49.3287 8.228 50.0827 8.735 50.4337 9.424L45.5457 13.935V14H47.3137L50.5117 10.841V14H51.8247V5.524H53.4107V4.38H43.6997V5.524ZM54.3756 14H55.7406V5.524H57.3266V4.38H52.7896V5.524H54.3756V14ZM64.7857 13.259C66.8657 13.259 67.9577 11.881 67.9577 10.035C67.9577 8.488 67.2037 7.474 66.0987 7.136V5.524H69.1017V4.38H56.6997V5.524H64.7597V7.058C63.6937 7.24 63.1607 8.007 62.9267 8.774H62.8877C62.6277 7.903 61.9777 7.019 60.6387 7.019C59.0527 7.019 57.8567 8.098 57.8567 10.035C57.8567 11.881 58.9487 13.259 61.0287 13.259C61.1457 13.259 61.3017 13.246 61.4707 13.233V12.037C61.3407 12.05 61.1977 12.063 61.1067 12.063C59.9107 12.063 59.2347 11.244 59.2347 10.061C59.2347 8.995 59.7807 8.215 60.8207 8.215C61.8607 8.215 62.3287 9.138 62.3287 10.347V10.581H63.4727V10.347C63.4727 9.112 63.9667 8.215 65.0457 8.215C66.0597 8.215 66.5797 9.021 66.5797 10.061C66.5797 11.244 65.9037 12.063 64.7077 12.063C64.6167 12.063 64.4737 12.05 64.3437 12.037V13.233C64.5127 13.246 64.6557 13.259 64.7857 13.259ZM73.3947 11.517C71.8607 11.517 70.9897 10.568 70.9897 9.125V9.073C72.6017 8.982 73.4207 8.15 73.4207 6.564V5.524H75.8257V9.177C75.8257 10.555 74.7987 11.517 73.3947 11.517ZM68.4937 5.524H72.0687V6.33C72.0687 7.76 71.3277 8.332 69.8587 8.332H69.6897C69.6637 8.553 69.6507 8.787 69.6507 8.995C69.6507 11.218 70.8857 12.661 73.1087 12.661C74.4217 12.661 75.3317 12.128 75.8257 11.4V14H77.1907V5.524H78.7767V4.38H68.4937V5.524ZM1.975 28H3.457V21.812L6.226 28H7.253L10.009 21.812V28H11.491V18.965H9.905L6.746 26.05L3.574 18.965H1.975V28ZM13.4389 28H14.9209V20.837H13.4389V28ZM14.1929 19.888C14.7129 19.888 15.1289 19.472 15.1289 18.939C15.1289 18.406 14.7129 17.99 14.1929 17.99C13.6599 17.99 13.2439 18.406 13.2439 18.939C13.2439 19.472 13.6599 19.888 14.1929 19.888ZM21.9496 28H23.4186V23.775C23.4186 21.773 22.1576 20.72 20.4806 20.72C19.6226 20.72 18.8296 21.071 18.3486 21.656V20.837H16.8666V28H18.3486V23.996C18.3486 22.683 19.0636 22.007 20.1556 22.007C21.2346 22.007 21.9496 22.683 21.9496 23.996V28ZM25.309 28H26.791V20.837H25.309V28ZM26.063 19.888C26.583 19.888 26.999 19.472 26.999 18.939C26.999 18.406 26.583 17.99 26.063 17.99C25.53 17.99 25.114 18.406 25.114 18.939C25.114 19.472 25.53 19.888 26.063 19.888ZM34.0797 25.998C34.0017 23.411 29.9587 24.217 29.9587 22.774C29.9587 22.293 30.3747 21.968 31.1677 21.968C31.9737 21.968 32.4547 22.397 32.5067 23.021H33.9887C33.9107 21.591 32.8447 20.72 31.2197 20.72C29.5297 20.72 28.4637 21.643 28.4637 22.787C28.4637 25.413 32.6237 24.607 32.6237 26.011C32.6237 26.505 32.1687 26.869 31.3107 26.869C30.4917 26.869 29.9327 26.388 29.8807 25.803H28.3467C28.4117 27.103 29.6207 28.117 31.3367 28.117C33.0267 28.117 34.0797 27.207 34.0797 25.998ZM35.9151 26.011C35.9151 27.467 36.7081 28 37.9821 28H39.1521V26.765H38.2421C37.6181 26.765 37.4101 26.544 37.4101 26.011V22.046H39.1521V20.837H37.4101V19.056H35.9151V20.837H35.0701V22.046H35.9151V26.011ZM42 24.23C42 22.709 42.676 22.254 43.768 22.254H44.145V20.72C43.131 20.72 42.416 21.162 42 21.877V20.837H40.518V28H42V24.23ZM48.3282 26.297L46.3132 20.837H44.6622L47.4832 27.883L46.0272 31.367H47.5612L51.9552 20.837H50.4212L48.3282 26.297ZM63.2756 24.412C63.2756 22.163 61.6636 20.72 59.6226 20.72C57.5816 20.72 55.9696 22.163 55.9696 24.412C55.9696 26.661 57.5166 28.117 59.5576 28.117C61.6116 28.117 63.2756 26.661 63.2756 24.412ZM57.4776 24.412C57.4776 22.787 58.4786 22.007 59.5966 22.007C60.7016 22.007 61.7546 22.787 61.7546 24.412C61.7546 26.037 60.6626 26.83 59.5576 26.83C58.4396 26.83 57.4776 26.037 57.4776 24.412ZM64.9226 28H66.4176V22.046H67.7436V20.837H66.4176V20.33C66.4176 19.511 66.7296 19.199 67.6396 19.199V17.964C65.7676 17.964 64.9226 18.679 64.9226 20.33V20.837H64.0776V22.046H64.9226V28ZM77.426 18.952H72.434V28H77.426V26.791H73.916V24.022H77.036V22.813H73.916V20.161H77.426V18.952ZM78.7574 24.386C78.7574 26.596 80.2524 28.117 82.1374 28.117C83.3074 28.117 84.1654 27.571 84.6204 26.921V28H86.1154V18.38H84.6204V21.838C84.0744 21.162 83.0864 20.72 82.1504 20.72C80.2524 20.72 78.7574 22.176 78.7574 24.386ZM84.6204 24.412C84.6204 25.959 83.5674 26.83 82.4494 26.83C81.3444 26.83 80.2784 25.933 80.2784 24.386C80.2784 22.839 81.3444 22.007 82.4494 22.007C83.5674 22.007 84.6204 22.878 84.6204 24.412ZM94.5489 20.837H93.0669V24.828C93.0669 26.141 92.3519 26.817 91.2599 26.817C90.1809 26.817 89.4659 26.141 89.4659 24.828V20.837H87.9969V25.049C87.9969 27.051 89.2709 28.104 90.9479 28.104C91.7929 28.104 92.5989 27.753 93.0669 27.142V28H94.5489V20.837ZM96.0103 24.412C96.0103 26.661 97.4663 28.117 99.5203 28.117C101.275 28.117 102.419 27.142 102.822 25.738H101.223C100.95 26.479 100.404 26.869 99.5203 26.869C98.3243 26.869 97.5313 25.985 97.5313 24.412C97.5313 22.852 98.3243 21.968 99.5203 21.968C100.404 21.968 100.976 22.41 101.223 23.099H102.822C102.419 21.591 101.275 20.72 99.5203 20.72C97.4663 20.72 96.0103 22.176 96.0103 24.412ZM103.805 24.386C103.805 26.596 105.3 28.117 107.159 28.117C108.355 28.117 109.213 27.545 109.668 26.934V28H111.163V20.837H109.668V21.877C109.226 21.292 108.394 20.72 107.185 20.72C105.3 20.72 103.805 22.176 103.805 24.386ZM109.668 24.412C109.668 25.959 108.615 26.83 107.497 26.83C106.392 26.83 105.326 25.933 105.326 24.386C105.326 22.839 106.392 22.007 107.497 22.007C108.615 22.007 109.668 22.878 109.668 24.412ZM113.344 26.011C113.344 27.467 114.137 28 115.411 28H116.581V26.765H115.671C115.047 26.765 114.839 26.544 114.839 26.011V22.046H116.581V20.837H114.839V19.056H113.344V20.837H112.499V22.046H113.344V26.011ZM117.947 28H119.429V20.837H117.947V28ZM118.701 19.888C119.221 19.888 119.637 19.472 119.637 18.939C119.637 18.406 119.221 17.99 118.701 17.99C118.168 17.99 117.752 18.406 117.752 18.939C117.752 19.472 118.168 19.888 118.701 19.888ZM128.199 24.412C128.199 22.163 126.587 20.72 124.546 20.72C122.505 20.72 120.893 22.163 120.893 24.412C120.893 26.661 122.44 28.117 124.481 28.117C126.535 28.117 128.199 26.661 128.199 24.412ZM122.401 24.412C122.401 22.787 123.402 22.007 124.52 22.007C125.625 22.007 126.678 22.787 126.678 24.412C126.678 26.037 125.586 26.83 124.481 26.83C123.363 26.83 122.401 26.037 122.401 24.412ZM134.747 28H136.216V23.775C136.216 21.773 134.955 20.72 133.278 20.72C132.42 20.72 131.627 21.071 131.146 21.656V20.837H129.664V28H131.146V23.996C131.146 22.683 131.861 22.007 132.953 22.007C134.032 22.007 134.747 22.683 134.747 23.996V28Z" fill="#2B2B2B"/>
</svg>
