<svg width="52" height="52" viewBox="0 0 52 52" fill="none" xmlns="http://www.w3.org/2000/svg">
<g clip-path="url(#clip0_33_41)">
<path d="M19.2007 30.4186C19.2007 29.7006 18.6187 29.1186 17.9007 29.1186H15.0673C14.3494 29.1186 13.7673 29.7006 13.7673 30.4186C13.7673 31.1366 14.3494 31.7186 15.0673 31.7186H16.6007V33.2519C16.6007 33.9699 17.1828 34.5519 17.9007 34.5519C18.6187 34.5519 19.2007 33.9699 19.2007 33.2519V30.4186Z" fill="#394EA5"/>
<path d="M12.3001 30.4186C12.3001 29.7006 11.718 29.1186 11.0001 29.1186H8.16658C7.44865 29.1186 6.86658 29.7006 6.86658 30.4186C6.86658 31.1366 7.44865 31.7186 8.16658 31.7186H9.70006V33.2519C9.70006 33.9699 10.2821 34.5519 11.0001 34.5519C11.718 34.5519 12.3001 33.9699 12.3001 33.2519V30.4186Z" fill="#394EA5"/>
<path d="M17.9007 41.7347C18.6187 41.7347 19.2007 41.1527 19.2007 40.4347V37.6014C19.2007 36.8834 18.6187 36.3014 17.9007 36.3014H15.0673C14.3494 36.3014 13.7673 36.8834 13.7673 37.6014C13.7673 38.3194 14.3494 38.9014 15.0673 38.9014H16.6007V40.4347C16.6007 41.1527 17.1828 41.7347 17.9007 41.7347Z" fill="#394EA5"/>
<path d="M11.0001 41.7347C11.718 41.7347 12.3001 41.1527 12.3001 40.4347V37.6014C12.3001 36.8834 11.718 36.3014 11.0001 36.3014H8.16658C7.44865 36.3014 6.86658 36.8834 6.86658 37.6014C6.86658 38.3194 7.44865 38.9014 8.16658 38.9014H9.70006V40.4347C9.70006 41.1527 10.2821 41.7347 11.0001 41.7347Z" fill="#394EA5"/>
<path d="M36.9325 29.1186H34.0991C33.3811 29.1186 32.7991 29.7006 32.7991 30.4186V33.2519C32.7991 33.9699 33.3811 34.5519 34.0991 34.5519C34.8171 34.5519 35.3991 33.9699 35.3991 33.2519V31.7186H36.9325C37.6505 31.7186 38.2325 31.1366 38.2325 30.4186C38.2325 29.7006 37.6505 29.1186 36.9325 29.1186Z" fill="#394EA5"/>
<path d="M43.8332 29.1186H40.9998C40.2818 29.1186 39.6998 29.7006 39.6998 30.4186V33.2519C39.6998 33.9699 40.2818 34.5519 40.9998 34.5519C41.7178 34.5519 42.2998 33.9699 42.2998 33.2519V31.7186H43.8332C44.5512 31.7186 45.1332 31.1366 45.1332 30.4186C45.1332 29.7006 44.5512 29.1186 43.8332 29.1186Z" fill="#394EA5"/>
<path d="M36.9325 36.3014H34.0991C33.3811 36.3014 32.7991 36.8834 32.7991 37.6014V40.4347C32.7991 41.1527 33.3811 41.7347 34.0991 41.7347C34.8171 41.7347 35.3991 41.1527 35.3991 40.4347V38.9014H36.9325C37.6505 38.9014 38.2325 38.3194 38.2325 37.6014C38.2325 36.8834 37.6505 36.3014 36.9325 36.3014Z" fill="#394EA5"/>
<path d="M43.8332 36.3014H40.9998C40.2818 36.3014 39.6998 36.8834 39.6998 37.6014V40.4347C39.6998 41.1527 40.2818 41.7347 40.9998 41.7347C41.7178 41.7347 42.2998 41.1527 42.2998 40.4347V38.9014H43.8332C44.5512 38.9014 45.1332 38.3194 45.1332 37.6014C45.1332 36.8834 44.5512 36.3014 43.8332 36.3014Z" fill="#394EA5"/>
<path d="M20.3289 23.676C20.3289 26.803 22.8729 29.347 26 29.347C29.127 29.347 31.6711 26.803 31.6711 23.676C31.6711 20.549 29.127 18.0049 26 18.0049C22.8729 18.0049 20.3289 20.5489 20.3289 23.676ZM29.0711 23.676C29.0711 25.3694 27.6934 26.747 26 26.747C24.3066 26.747 22.9289 25.3694 22.9289 23.676C22.9289 21.9825 24.3066 20.6049 26 20.6049C27.6934 20.6049 29.0711 21.9825 29.0711 23.676Z" fill="#394EA5"/>
<path d="M48.4512 26.747C47.7332 26.747 47.1512 27.329 47.1512 28.047V28.2632C47.1512 28.9812 47.7332 29.5632 48.4512 29.5632C49.1692 29.5632 49.7512 28.9812 49.7512 28.2632V28.047C49.7512 27.329 49.1692 26.747 48.4512 26.747Z" fill="#394EA5"/>
<path d="M48.4512 30.9169C47.7332 30.9169 47.1512 31.4989 47.1512 32.2169V45.8773H30.7814V40.9308C30.7814 38.2943 28.6365 36.1494 26 36.1494C23.3634 36.1494 21.2186 38.2943 21.2186 40.9308V45.8773H4.84878V24.2057L11.8152 17.0784H16.9275L12.3353 22.376H9.58338C8.86539 22.376 8.28338 22.958 8.28338 23.676C8.28338 24.394 8.86539 24.976 9.58338 24.976H12.9289C13.3059 24.976 13.6642 24.8123 13.9111 24.5275L26 10.5816L38.0889 24.5275C38.3458 24.8239 38.7075 24.9758 39.0711 24.9759V24.976H48.4512C48.9743 24.976 49.4464 24.6625 49.6494 24.1803C49.8523 23.6982 49.7465 23.1414 49.3809 22.7673L41.6615 14.8697C41.4169 14.6195 41.0817 14.4784 40.7318 14.4784H32.8187L27.3 8.11186V7.10215C27.4374 7.12022 27.5728 7.12867 27.7058 7.12867C28.4817 7.1286 29.1776 6.84839 29.7661 6.61133C30.6373 6.2604 31.3898 5.9573 32.531 6.22848C32.9179 6.32046 33.3255 6.23024 33.6375 5.98369C33.9495 5.73715 34.1315 5.36132 34.1315 4.96371V1.37019C34.1315 1.02296 33.9926 0.690093 33.7457 0.445888C33.0809 -0.211587 32.2921 -0.520532 31.401 -0.472432C30.7316 -0.436292 30.115 -0.206257 29.5186 0.0162377C28.5159 0.390313 27.65 0.713363 26.5565 0.195313C26.5562 0.195638 26.556 0.195963 26.5557 0.196288C26.387 0.116273 26.1991 0.0701878 25.9999 0.0701878C25.2819 0.0701878 24.6999 0.652198 24.6999 1.37019V8.11186L19.1812 14.4784H11.268C10.918 14.4784 10.5829 14.6194 10.3383 14.8697L2.61908 22.7673C2.38164 23.0101 2.24878 23.3363 2.24878 23.6759V47.1773C2.24878 47.8952 2.83079 48.4773 3.54878 48.4773H22.5186C23.2366 48.4773 23.8186 47.8952 23.8186 47.1773V40.9308C23.8186 39.7279 24.7971 38.7494 26 38.7494C27.2028 38.7494 28.1814 39.7279 28.1814 40.9308V47.1773C28.1814 47.8952 28.7634 48.4773 29.4814 48.4773H48.4512C49.1692 48.4773 49.7512 47.8952 49.7512 47.1773V32.2169C49.7512 31.4989 49.1692 30.9169 48.4512 30.9169ZM40.1846 17.0784L45.3627 22.376H39.6647L35.0725 17.0784H40.1846ZM30.4274 2.45224C31.0168 2.23235 31.3326 2.13621 31.5315 2.12562V3.52617C30.3923 3.55614 29.5017 3.91481 28.7946 4.19964C27.9684 4.53244 27.6836 4.64677 27.3 4.38138V3.04868C28.5667 3.14625 29.6359 2.74754 30.4274 2.45224Z" fill="#394EA5"/>
</g>
<defs>
<clipPath id="clip0_33_41">
<rect width="52" height="52" fill="white"/>
</clipPath>
</defs>
</svg>
