<svg width="56" height="56" viewBox="0 0 56 56" fill="none" xmlns="http://www.w3.org/2000/svg">
<path d="M12.7018 46.5563C12.1581 46.5563 11.7174 46.997 11.7174 47.5407V49.947C11.7174 50.4907 12.1581 50.9313 12.7018 50.9313H17.573H22.4583H33.5417H38.4271H43.2983C43.842 50.9313 44.2827 50.4907 44.2827 49.947V41.5403C44.2827 39.9688 43.7267 38.525 42.802 37.3941V29.1294C42.802 28.5857 42.3613 28.145 41.8176 28.145H37.2777C37.8609 27.0062 38.192 25.7181 38.192 24.3531V20.93C41.8669 16.58 42.8233 12.2939 40.8074 9.13018C39.6417 7.30078 37.6101 6.04646 34.9319 5.50276C32.28 4.9642 29.1647 5.17354 25.9239 6.10815C19.2584 8.02998 17.1344 6.57398 16.859 5.82257C16.7887 5.34231 16.3835 5.02621 15.8953 5.0249C15.8944 5.0249 15.8936 5.0249 15.8929 5.0249C15.3996 5.0249 14.9897 5.43364 14.9245 5.92287C14.2706 10.8274 16.8938 14.2741 17.8076 15.307V24.353C17.8076 25.7179 18.1388 27.0061 18.722 28.1449H14.182C13.6383 28.1449 13.1977 28.5856 13.1977 29.1293V37.3942C12.273 38.5252 11.7172 39.9689 11.7172 41.5402V42.8922C11.7172 43.4359 12.1578 43.8765 12.7015 43.8765C13.2452 43.8765 13.6859 43.4359 13.6859 42.8922V41.5402C13.6859 39.6047 14.8902 37.9462 16.5884 37.2717V48.9626H13.6861V47.5407C13.6861 46.9971 13.2455 46.5563 12.7018 46.5563ZM24.9601 36.9484H31.0399H32.5574V48.9626H23.4427V36.9484H24.9601ZM19.7765 24.353V15.9033H36.2233V24.353C36.2233 27.6648 33.6871 30.3948 30.4552 30.7046H25.5447C22.3126 30.3949 19.7765 27.6649 19.7765 24.353ZM25.9444 32.6981C26.0158 32.6999 26.0866 32.7036 26.1584 32.7036H29.8416C29.9133 32.7036 29.9842 32.6999 30.0555 32.6981V34.9797H25.9444V32.6981ZM34.5261 48.9626V36.9484H37.4427V48.9626H34.5261ZM42.3139 48.9626H39.4115V37.2718C41.1096 37.9463 42.3139 39.6048 42.3139 41.5403V48.9626ZM40.8332 30.1137V35.7657C40.226 35.4373 39.561 35.2034 38.8584 35.0802C38.728 35.0164 38.582 34.9797 38.4271 34.9797H37.7222H33.5417H32.0243V32.4122C33.5153 32.0079 34.841 31.2001 35.8782 30.1136H40.8332V30.1137ZM26.4694 7.9999C32.1704 6.35578 37.2655 7.23537 39.1471 10.1883C40.3822 12.1264 40.021 14.7593 38.1921 17.6327V14.9191C38.1921 14.3754 37.7515 13.9347 37.2078 13.9347H19.2237C18.6162 13.2291 17.1089 11.2173 16.8345 8.35668C18.8761 9.37464 22.1143 9.25542 26.4694 7.9999ZM20.1216 30.1137C21.159 31.2002 22.4847 32.0079 23.9757 32.4123V34.9798H22.4583H18.2779H17.573C17.4181 34.9798 17.2721 35.0165 17.1417 35.0803C16.439 35.2035 15.7739 35.4375 15.1666 35.7661V30.1138L20.1216 30.1137ZM18.5574 36.9484H21.474V48.9626H18.5574V36.9484Z" fill="#394EA5"/>
</svg>
