<svg width="54" height="54" viewBox="0 0 54 54" fill="none" xmlns="http://www.w3.org/2000/svg">
<path d="M6.75 10.125V13.5H43.875V40.5H20.25V43.875H50.625V40.5H47.25V10.125H6.75ZM13.5033 15.1875C9.79302 15.1875 6.75 18.2295 6.75 21.9375C6.75 25.6478 9.79438 28.6875 13.5033 28.6875C17.2077 28.6875 20.25 25.6478 20.25 21.9375C20.25 18.2295 17.209 15.1875 13.5033 15.1875ZM23.625 16.875V20.25H32.0625V16.875H23.625ZM35.4375 16.875V20.25H40.5V16.875H35.4375ZM13.5033 18.5625C15.3832 18.5625 16.875 20.0531 16.875 21.9375C16.875 23.8263 15.3846 25.3125 13.5033 25.3125C11.6131 25.3125 10.125 23.8263 10.125 21.9375C10.125 20.0531 11.6144 18.5625 13.5033 18.5625ZM23.625 23.625V27H40.5V23.625H23.625ZM6.75 30.375V43.875H10.125V33.75H15.1875V43.875H18.5625V34.8607L22.0463 36.7031C23.0323 37.2265 24.2183 37.2244 25.2037 36.7031V36.7064L31.1627 33.5555L29.5873 30.5695L23.6283 33.7203L18.4043 30.9617C17.6767 30.5776 16.864 30.375 16.0378 30.375H6.75Z" fill="#394EA5"/>
</svg>
