<svg width="236" height="35" viewBox="0 0 236 35" fill="none" xmlns="http://www.w3.org/2000/svg">
<path d="M143.258 14.676C143.258 16.106 142.478 16.964 140.814 16.964H138.058V12.44H140.814C142.478 12.44 143.258 13.324 143.258 14.676ZM133.612 8.748V27H138.058V20.11H139.124L142.92 27H147.938L143.726 19.772C146.534 18.94 147.782 16.782 147.782 14.494C147.782 11.322 145.546 8.748 141.074 8.748H133.612ZM156.969 15.846C158.451 15.846 159.699 16.756 159.699 18.342H154.135C154.395 16.73 155.513 15.846 156.969 15.846ZM163.911 22.19H159.179C158.815 22.97 158.113 23.594 156.865 23.594C155.435 23.594 154.265 22.71 154.109 20.812H164.171C164.223 20.37 164.249 19.928 164.249 19.512C164.249 15.092 161.259 12.284 157.021 12.284C152.705 12.284 149.689 15.144 149.689 19.746C149.689 24.348 152.757 27.208 157.021 27.208C160.635 27.208 163.209 25.024 163.911 22.19ZM171.04 14.546V12.492H166.594V33.916H171.04V24.972C171.846 26.194 173.38 27.208 175.512 27.208C179.074 27.208 181.908 24.296 181.908 19.72C181.908 15.144 179.074 12.284 175.512 12.284C173.38 12.284 171.846 13.272 171.04 14.546ZM177.384 19.72C177.384 22.034 175.876 23.334 174.186 23.334C172.522 23.334 171.014 22.06 171.014 19.746C171.014 17.432 172.522 16.158 174.186 16.158C175.876 16.158 177.384 17.406 177.384 19.72ZM198.437 19.746C198.437 15.144 195.161 12.284 190.897 12.284C186.659 12.284 183.357 15.144 183.357 19.746C183.357 24.348 186.581 27.208 190.845 27.208C195.109 27.208 198.437 24.348 198.437 19.746ZM187.881 19.746C187.881 17.276 189.285 16.132 190.897 16.132C192.457 16.132 193.913 17.276 193.913 19.746C193.913 22.19 192.431 23.36 190.845 23.36C189.233 23.36 187.881 22.19 187.881 19.746ZM205.242 20.266C205.242 17.77 206.464 17.042 208.57 17.042H209.792V12.336C207.842 12.336 206.256 13.376 205.242 14.91V12.492H200.796V27H205.242V20.266ZM212.619 21.956C212.619 25.726 214.725 27 217.741 27H220.003V23.23H218.417C217.429 23.23 217.065 22.866 217.065 22.008V16.184H219.977V12.492H217.065V8.956H212.619V12.492H210.851V16.184H212.619V21.956ZM234.257 22.788C234.179 17.38 226.327 19.018 226.327 16.704C226.327 16.002 226.899 15.586 227.939 15.586C229.187 15.586 229.941 16.236 230.071 17.224H234.179C233.893 14.364 231.813 12.284 228.069 12.284C224.273 12.284 222.167 14.312 222.167 16.782C222.167 22.112 230.071 20.422 230.071 22.762C230.071 23.412 229.473 23.932 228.329 23.932C227.107 23.932 226.197 23.256 226.093 22.242H221.699C221.907 25.05 224.507 27.208 228.381 27.208C232.021 27.208 234.257 25.31 234.257 22.788Z" fill="#224D8A"/>
<g clip-path="url(#clip0_55_258)">
<path d="M93.5352 29.6736C93.3631 29.6736 93.198 29.6047 93.0763 29.482C92.9546 29.3594 92.8863 29.193 92.8863 29.0195V20.6798H84.6121C84.44 20.6798 84.2749 20.6109 84.1532 20.4882C84.0315 20.3656 83.9632 20.1992 83.9632 20.0257V16.4282C83.9632 16.2547 84.0315 16.0884 84.1532 15.9657C84.2749 15.843 84.44 15.7741 84.6121 15.7741H92.8856V7.43443C92.8856 7.26095 92.954 7.09458 93.0757 6.97191C93.1974 6.84925 93.3624 6.78033 93.5345 6.78033H97.1035C97.2756 6.78033 97.4407 6.84925 97.5624 6.97191C97.6841 7.09458 97.7524 7.26095 97.7524 7.43443V15.7741H106.026C106.198 15.7741 106.363 15.843 106.485 15.9657C106.607 16.0884 106.675 16.2547 106.675 16.4282V20.0257C106.675 20.1992 106.607 20.3656 106.485 20.4882C106.363 20.6109 106.198 20.6798 106.026 20.6798H97.7524V29.0195C97.7524 29.193 97.6841 29.3594 97.5624 29.482C97.4407 29.6047 97.2756 29.6736 97.1035 29.6736H93.5352ZM51.2914 28.0894C51.2362 28.0659 51.1864 28.0311 51.1454 27.987C51.1044 27.9429 51.073 27.8907 51.0533 27.8336C51.023 27.7628 51.0176 27.6837 51.0377 27.6093L52.6613 23.9876C52.7018 23.9283 52.7339 23.8635 52.7567 23.7953C52.7849 23.7354 52.8248 23.6819 52.874 23.6378C52.9231 23.5938 52.9805 23.5601 53.0428 23.5389C53.3054 23.5817 53.5617 23.6571 53.8059 23.7632C54.4838 23.9769 55.088 24.148 55.6183 24.2767C56.1918 24.4094 56.7788 24.4737 57.3671 24.4683C58.0221 24.4759 58.6734 24.3674 59.2911 24.1478C59.5484 24.079 59.775 23.9242 59.9338 23.7089C60.0925 23.4935 60.1741 23.2301 60.1652 22.962C60.1689 22.8647 60.1581 22.7675 60.1334 22.6735C60.0756 22.4345 59.9712 22.2094 59.8264 22.0113C59.6816 21.8133 59.4992 21.6462 59.2898 21.5197C58.5279 20.9954 57.7371 20.515 56.9213 20.0807C55.876 19.5298 54.8623 18.9198 53.8851 18.2538C53.0832 17.6915 52.3747 17.0047 51.7859 16.2189C51.1825 15.4199 50.8434 14.45 50.8164 13.4462C50.7299 11.0745 51.424 9.29554 52.8988 8.10945C54.5186 6.87381 56.5139 6.24376 58.5436 6.32705C60.2933 6.337 62.027 6.66264 63.6628 7.28857C63.7116 7.29662 63.7582 7.31508 63.7994 7.34272C63.8405 7.37035 63.8754 7.40652 63.9016 7.44882C63.9268 7.48587 63.944 7.52782 63.9522 7.57198C63.9603 7.61613 63.9592 7.66151 63.949 7.70522L62.6778 11.6468C62.6352 11.7945 62.5709 11.935 62.487 12.0634C62.4437 12.1071 62.3483 12.1177 62.2008 12.0955C61.5398 11.8021 60.8531 11.5713 60.1496 11.4061C59.4579 11.2322 58.7484 11.1406 58.0355 11.1333C57.4839 11.1087 56.9355 11.2302 56.445 11.4859C56.2502 11.5967 56.0903 11.7606 55.9834 11.9587C55.8766 12.1568 55.8272 12.3813 55.8409 12.6063C55.8378 12.7566 55.8484 12.9068 55.8727 13.0551C55.9977 13.5383 56.306 13.9526 56.7312 14.2089C57.2187 14.5507 58.0031 15.0208 59.0841 15.6191C60.1525 16.1537 61.1879 16.7528 62.1846 17.4133C63.0127 17.9812 63.7295 18.6986 64.2987 19.5293C64.9019 20.4144 65.2136 21.4684 65.1897 22.542C65.1867 23.7075 64.8794 24.8517 64.2987 25.8596C63.6625 26.9605 62.7392 27.8647 61.6291 28.474C60.2913 29.1945 58.7891 29.5482 57.273 29.4996C55.1969 29.5157 53.1469 29.0322 51.2934 28.0894H51.2914ZM42.9608 29.1471C42.9263 29.1455 42.8927 29.1361 42.8624 29.1194C42.8322 29.1027 42.8061 29.0793 42.7862 29.0509C42.7378 28.9984 42.7095 28.9302 42.7064 28.8586L42.6746 6.83986C42.673 6.80148 42.6792 6.76317 42.6928 6.72729C42.7064 6.69141 42.7272 6.65871 42.7538 6.6312C42.7761 6.6066 42.8031 6.58684 42.8332 6.57312C42.8633 6.5594 42.8959 6.55201 42.929 6.5514H47.8256C47.8586 6.55194 47.8911 6.55931 47.9211 6.57304C47.9511 6.58676 47.9781 6.60656 48.0002 6.6312C48.0269 6.65865 48.0478 6.69133 48.0615 6.72721C48.0752 6.76309 48.0815 6.80143 48.08 6.83986L48.1118 28.8586C48.1089 28.9302 48.0809 28.9983 48.0326 29.0509C48.0126 29.0793 47.9864 29.1027 47.956 29.1193C47.9257 29.136 47.8919 29.1455 47.8574 29.1471H42.9608ZM4.67534 27.9612C3.31945 27.2144 2.20481 26.0908 1.46391 24.7241C0.684173 23.2453 0.290276 21.5909 0.319238 19.9165V6.90396C0.319842 6.87064 0.327173 6.8378 0.340784 6.80744C0.354395 6.77708 0.374002 6.74983 0.398406 6.72735C0.420773 6.70284 0.447823 6.68314 0.47793 6.66943C0.508037 6.65572 0.540578 6.64828 0.573608 6.64755H5.34242C5.37817 6.64507 5.41401 6.65099 5.44712 6.66483C5.48022 6.67868 5.50969 6.70008 5.5332 6.72735C5.57451 6.77685 5.59745 6.83928 5.59809 6.90396V19.9806C5.57575 20.5025 5.65699 21.0236 5.83706 21.5134C6.01713 22.0032 6.29239 22.4519 6.64672 22.8331C7.0226 23.1709 7.45267 23.4418 7.91857 23.6344C8.37222 23.8239 8.85834 23.9219 9.34941 23.9228C10.3667 23.9314 11.3474 23.5406 12.0839 22.8331C12.439 22.457 12.7102 22.0087 12.8795 21.5184C13.0493 21.0243 13.1248 20.5023 13.102 19.9799V6.90396C13.1024 6.83923 13.1254 6.7767 13.1669 6.72735C13.1903 6.70005 13.2196 6.67862 13.2526 6.66477C13.2856 6.65092 13.3214 6.64502 13.3571 6.64755H18.0629C18.2537 6.64755 18.3491 6.73302 18.3491 6.90396V19.9165C18.3952 21.5889 18.0119 23.245 17.2362 24.7241C16.4693 26.0741 15.3462 27.1835 13.9917 27.9291C12.5781 28.7345 10.9724 29.1336 9.34941 29.083C9.26289 29.0851 9.17486 29.0862 9.08531 29.0862C7.54499 29.1036 6.02679 28.7158 4.68053 27.9612H4.67534ZM67.3142 29.0182C67.2502 29.0177 67.1884 28.9945 67.1396 28.9528C67.1124 28.9294 67.0911 28.8998 67.0773 28.8665C67.0636 28.8332 67.0578 28.7971 67.0605 28.7611V6.83986C67.0611 6.80654 67.0684 6.7737 67.082 6.74334C67.0956 6.71298 67.1152 6.68573 67.1396 6.66325C67.1619 6.63882 67.1889 6.61916 67.2189 6.60545C67.2489 6.59174 67.2813 6.58426 67.3142 6.58345H79.5928C79.6309 6.58195 79.6688 6.58825 79.7044 6.60196C79.74 6.61568 79.7724 6.63653 79.7998 6.66325C79.8242 6.68573 79.8438 6.71298 79.8574 6.74334C79.871 6.7737 79.8784 6.80654 79.879 6.83986V11.5493C79.8784 11.5826 79.871 11.6155 79.8574 11.6458C79.8438 11.6762 79.8242 11.7035 79.7998 11.7259C79.7724 11.7527 79.74 11.7735 79.7044 11.7872C79.6688 11.8009 79.6309 11.8072 79.5928 11.8057H72.4386V15.2031L78.4163 15.171C78.4543 15.1695 78.4922 15.1758 78.5277 15.1895C78.5631 15.2032 78.5955 15.2241 78.6227 15.2508C78.6472 15.2733 78.6669 15.3005 78.6806 15.3309C78.6943 15.3612 78.7018 15.3941 78.7025 15.4274V20.1369C78.7 20.1738 78.6902 20.2098 78.6737 20.2428C78.6572 20.2758 78.6343 20.3052 78.6065 20.3292C78.5859 20.3506 78.5611 20.3674 78.5338 20.3787C78.5064 20.39 78.477 20.3954 78.4475 20.3946L72.438 20.4267V23.824H79.5928C79.7836 23.824 79.879 23.9097 79.879 24.0805V28.7625C79.879 28.9334 79.7836 29.0189 79.5928 29.0189L67.3142 29.0182ZM21.5592 29.0182C21.495 29.0178 21.433 28.9947 21.384 28.9528C21.3569 28.9293 21.3357 28.8997 21.3219 28.8664C21.3082 28.8331 21.3023 28.7971 21.3049 28.7611V6.83986C21.3056 6.80656 21.3129 6.77376 21.3265 6.74341C21.3402 6.71306 21.3597 6.6858 21.384 6.66325C21.4064 6.63874 21.4334 6.61904 21.4635 6.60533C21.4936 6.59162 21.5262 6.58417 21.5592 6.58345H28.9678C30.9529 6.57513 32.9052 7.09401 34.6282 8.08787C36.3511 9.03548 37.7813 10.444 38.7611 12.1583C39.751 13.8464 40.2669 15.7741 40.2535 17.7351C40.2545 18.7305 40.1262 19.7218 39.872 20.6837C39.4964 22.1037 38.8422 23.4333 37.948 24.5939C37.051 25.7654 35.9323 26.7459 34.6567 27.4785C32.9323 28.5003 30.9654 29.032 28.9652 29.0169L21.5592 29.0182ZM26.6836 23.9876H28.973C30.0346 23.993 31.0781 23.7106 31.9943 23.17C32.9084 22.6448 33.6489 21.86 34.1233 20.9133C34.602 19.9696 34.8528 18.9252 34.8553 17.8653C34.862 16.7606 34.6 15.6712 34.0922 14.6923C33.6136 13.762 32.8868 12.9849 31.9936 12.4487C31.0807 11.8985 30.036 11.6103 28.9723 11.6154H26.683L26.6836 23.9876Z" fill="#224D8A"/>
</g>
<line x1="119.5" y1="-2.18557e-08" x2="119.5" y2="35" stroke="#CFE0F0"/>
<defs>
<clipPath id="clip0_55_258">
<rect width="107" height="24" fill="white" transform="translate(0 6)"/>
</clipPath>
</defs>
</svg>
