<svg width="324" height="337" viewBox="0 0 324 337" fill="none" xmlns="http://www.w3.org/2000/svg">
<path d="M42.6228 238.672C63.2618 232.194 86.5919 239.466 102.836 251.31C119.079 263.155 130.15 278.985 143.169 293.344C156.188 307.703 172.401 321.333 193.527 325.605C231.124 333.216 267.145 309.649 303.416 297.059C358.275 278.017 424.312 285.13 470.058 315.013" stroke="#CFD5ED" stroke-miterlimit="10"/>
<path d="M46.1172 226.527C66.7561 220.049 90.0869 227.331 106.33 239.166C122.573 251 133.646 266.85 146.664 281.209C159.683 295.568 175.896 309.198 197.021 313.46C234.606 321.072 270.665 297.513 306.899 284.925C361.77 265.872 427.806 272.985 473.541 302.869" stroke="#CFD5ED" stroke-miterlimit="10"/>
<path d="M49.6123 214.392C70.2512 207.914 93.582 215.196 109.825 227.031C126.068 238.865 137.14 254.705 150.158 269.064C163.177 283.423 179.391 297.054 200.516 301.325C238.101 308.937 274.136 285.379 310.394 272.79C365.265 253.737 431.301 260.851 477.036 290.734" stroke="#CFD5ED" stroke-miterlimit="10"/>
<path d="M53.1065 202.247C73.7455 195.77 97.0763 203.051 113.32 214.896C129.564 226.74 140.635 242.571 153.653 256.929C166.672 271.288 182.886 284.919 204.01 289.18C241.644 296.799 277.63 273.235 313.912 260.644C368.784 241.601 434.82 248.714 480.555 278.598" stroke="#CFD5ED" stroke-miterlimit="10"/>
<path d="M401 -4.71762C363.625 -4.78259 326.583 15.9535 302.524 50.3764C281.683 80.2406 270.894 118.378 253.003 150.916C235.111 183.455 204.857 211.988 172.985 204.841C151.11 199.936 133.722 178.918 123.437 155.161C113.151 131.404 108.692 104.723 103.18 78.7572C97.6689 52.7911 90.6831 26.4352 76.4237 5.86156C58.3522 -20.2236 29.0153 -34.3003 1.00001 -30.3372" stroke="#CFD5ED" stroke-miterlimit="10"/>
<path d="M388.485 -6.3636C370.919 -6.24992 353.58 -1.57729 337.649 7.33592C321.718 16.2491 307.569 29.1935 296.167 45.287C276.603 73.278 266.498 109.033 249.748 139.493C232.998 169.952 204.623 196.741 174.756 190.05C154.248 185.448 137.947 165.751 128.309 143.488C118.671 121.225 114.454 96.2555 109.321 71.892C104.187 47.5285 97.6328 22.8401 84.2365 3.55505C67.2978 -20.8951 39.795 -34.0947 13.5419 -30.3806" stroke="#CFD5ED" stroke-miterlimit="10"/>
<path d="M375.969 -8.00957C359.569 -7.90948 343.38 -3.55123 328.505 4.76799C313.63 13.0872 300.42 25.1718 289.775 40.1977C271.524 66.3154 262.119 99.688 246.457 128.145C230.795 156.601 204.362 181.571 176.491 175.301C157.35 170.97 142.137 152.627 133.137 131.837C124.138 111.047 120.245 87.7119 115.426 65.0051C110.606 42.2984 104.484 19.2234 92.0495 1.2269C84.0263 -10.1301 73.819 -18.9522 62.3169 -24.4707C50.8147 -29.9891 38.3667 -32.0367 26.0571 -30.4348" stroke="#CFD5ED" stroke-miterlimit="10"/>
<path d="M363.446 -9.65546C348.221 -9.55955 333.192 -5.51225 319.384 2.21068C305.575 9.9336 293.311 21.1507 283.428 35.0976C266.471 59.3528 257.741 90.3215 243.203 116.764C228.665 143.207 204.102 166.357 178.226 160.553C160.461 156.569 146.336 139.503 137.975 120.207C129.613 100.912 126.008 79.2443 121.531 58.1509C117.053 37.0575 111.371 15.6501 99.7998 -1.05786C92.3521 -11.5893 82.8814 -19.7705 72.2108 -24.8903C61.5402 -30.0101 49.9929 -31.9134 38.5725 -30.4348" stroke="#CFD5ED" stroke-miterlimit="10"/>
<path d="M350.912 -11.3013C336.865 -11.2087 322.999 -7.47071 310.26 -0.342059C297.521 6.7866 286.207 17.1385 277.089 30.0084C261.445 52.3904 253.389 80.9877 239.966 105.373C226.543 129.758 203.877 151.155 179.997 145.795C163.598 142.124 150.561 126.369 142.847 108.556C135.133 90.7439 131.798 70.7442 127.671 51.2859C123.544 31.8275 118.294 12.0552 107.613 -3.36418C100.737 -13.0939 91.9914 -20.6524 82.1367 -25.3818C72.2819 -30.1112 61.6167 -31.8681 51.0695 -30.4997" stroke="#CFD5ED" stroke-miterlimit="10"/>
</svg>
