<svg width="351" height="262" viewBox="0 0 351 262" fill="none" xmlns="http://www.w3.org/2000/svg">
<path d="M344.188 261.516C349.436 238.422 353.271 213.258 345.93 191.01C336.304 161.852 309.604 145.53 283.743 141.785C257.883 138.04 231.832 144.232 205.865 146.606C179.898 148.98 152.067 146.928 130.661 129.051C100.943 104.264 91.2252 55.9313 64.4331 26.7736C42.0948 2.42794 8.37355 -5.59525 -19.977 6.68797" stroke="#CFD5ED" stroke-miterlimit="10"/>
<path d="M324.516 261.516C329.482 239.674 333.111 215.862 326.159 194.819C317.06 167.216 291.78 151.796 267.334 148.253C242.887 144.711 218.234 150.563 193.665 152.854C169.096 155.145 142.777 153.157 122.525 136.292C94.4338 112.848 85.2204 67.1472 59.8798 39.5352C38.7487 16.5329 6.84564 8.9146 -19.9694 20.5353" stroke="#CFD5ED" stroke-miterlimit="10"/>
<path d="M304.844 261.517C309.527 240.916 312.95 218.475 306.372 198.628C297.785 172.617 273.972 158.061 250.901 154.721C227.829 151.382 204.605 156.902 181.441 159.028C158.278 161.153 133.457 159.313 114.366 143.386C87.879 121.304 79.1851 78.1883 55.2884 52.1497C35.3643 30.4448 5.28711 23.2865 -20 34.2355" stroke="#CFD5ED" stroke-miterlimit="10"/>
<path d="M285.172 261.517C289.572 242.195 292.812 221.032 286.631 202.437C278.564 178.009 256.187 164.327 234.521 161.19C212.855 158.052 191.029 163.242 169.264 165.229C147.499 167.216 124.19 165.496 106.245 150.507C81.3701 129.732 73.2033 89.257 50.7505 64.801C32.0334 44.4026 3.7745 37.6767 -19.9771 47.9633" stroke="#CFD5ED" stroke-miterlimit="10"/>
<path d="M265.492 261.516C269.618 243.418 272.62 223.682 266.86 206.247C259.319 183.392 238.387 170.593 218.111 167.658C197.836 164.723 177.423 169.572 157.063 171.44C136.704 173.307 114.893 171.688 98.1084 157.638C74.8381 138.206 67.1985 100.344 46.1973 77.4614C28.6796 58.3787 2.24652 52.0853 -19.9771 61.7094" stroke="#CFD5ED" stroke-miterlimit="10"/>
</svg>
